<?xml version="1.0" encoding="iso-8859-1"?>
<!-- Uploaded to: SVG Repo, www.svgrepo.com, Generator: SVG Repo Mixer Tools -->
<!DOCTYPE svg PUBLIC "-//W3C//DTD SVG 1.1//EN" "http://www.w3.org/Graphics/SVG/1.1/DTD/svg11.dtd">
<svg fill="#000000" version="1.1" id="Capa_1" xmlns="http://www.w3.org/2000/svg" xmlns:xlink="http://www.w3.org/1999/xlink" 
	 width="800px" height="800px" viewBox="0 0 358.643 358.643"
	 xml:space="preserve">
<g>
	<g>
		<path d="M251.264,228.772c-19.99,0-36.191,16.195-36.191,36.188c0,19.994,16.201,36.188,36.191,36.188
			c19.998,0,36.193-16.194,36.193-36.188C287.457,244.967,271.262,228.772,251.264,228.772z M251.264,280.692
			c-8.689,0-15.73-7.042-15.73-15.732c0-8.695,7.041-15.732,15.73-15.732S267,256.266,267,264.959
			C267,273.65,259.955,280.692,251.264,280.692z"/>
		<path d="M329.471,68.366h-38.592c0.082-0.5,0.137-1.008,0.137-1.531c0-5.156-4.184-9.34-9.342-9.34H144.496
			c-5.161,0-9.341,4.184-9.341,9.34c0,0.523,0.054,1.032,0.136,1.531H96.697c-9.275,0-17.559,4.406-22.91,11.209h-0.021v0.028
			c-3.893,4.958-6.238,11.18-6.238,17.935v138.249c0,2.125,0.236,4.196,0.673,6.194H11.489C5.143,241.981,0,247.127,0,253.469
			c0,6.347,5.144,11.488,11.489,11.488h85.208h61.891h49.997c0-23.531,19.146-42.676,42.681-42.676
			c23.533,0,42.682,19.145,42.682,42.676h35.525c16.043,0,29.17-13.127,29.17-29.171V97.539
			C358.643,81.494,345.516,68.366,329.471,68.366z M96.027,230.258V100.248c0-6.634,5.638-12.066,12.529-12.066h44.999
			c2.898,0,5.568,0.97,7.697,2.582h0.015v0.009c2.92,2.213,4.813,5.639,4.813,9.476V230.26c0,5.672-4.125,10.451-9.624,11.723
			h-50.802C100.152,240.711,96.027,235.93,96.027,230.258z M330.139,160.075c0,6.89-5.639,12.528-12.523,12.528h-99.961
			c-6.89,0-12.525-5.638-12.525-12.528v-59.367c0-2.9,1.008-5.57,2.676-7.701v-0.01h0.014c2.297-2.922,5.854-4.815,9.838-4.815
			h99.959c6.887,0,12.523,5.639,12.523,12.526V160.075L330.139,160.075z"/>
		<path d="M126.505,167.673h-19.756c-2.723,0-4.931,2.208-4.931,4.931c0,2.723,2.208,4.93,4.931,4.93h19.756
			c2.723,0,4.931-2.207,4.931-4.93C131.435,169.881,129.227,167.673,126.505,167.673z"/>
	</g>
</g>
</svg>