<?xml version="1.0" encoding="iso-8859-1"?>
<!-- Uploaded to: SVG Repo, www.svgrepo.com, Generator: SVG Repo Mixer Tools -->
<!DOCTYPE svg PUBLIC "-//W3C//DTD SVG 1.1//EN" "http://www.w3.org/Graphics/SVG/1.1/DTD/svg11.dtd">
<svg fill="#000000" height="800px" width="800px" version="1.1" id="Capa_1" xmlns="http://www.w3.org/2000/svg" xmlns:xlink="http://www.w3.org/1999/xlink" 
	 viewBox="0 0 274.109 274.109" xml:space="preserve">
<path d="M267.659,86.193l-19.044-26.582c-3.757-5.244-11.752-9.352-18.203-9.352H94.758c-6.489,0-14.329,4.271-17.848,9.724
	L50,101.685c-2.834,4.391-9.347,9.684-14.224,11.558l-24.681,9.487C4.874,125.122,0,132.217,0,138.884v47.018
	c0,6.939,5.645,12.583,12.583,12.583h13.094c4.264,14.636,17.789,25.365,33.782,25.365c15.993,0,29.519-10.729,33.782-25.365H168.5
	c4.264,14.636,17.79,25.365,33.783,25.365c15.992,0,29.518-10.729,33.781-25.365h25.462c6.939,0,12.583-5.645,12.583-12.583v-79.628
	C274.109,100.063,271.276,91.242,267.659,86.193z M59.459,206.14c-9.653,0-17.479-7.827-17.479-17.48
	c0-9.654,7.826-17.479,17.479-17.479c9.653,0,17.479,7.825,17.479,17.479C76.938,198.313,69.112,206.14,59.459,206.14z
	 M122.308,115.256l-51.299,2.172c-4.594,0.194-6.393-2.857-3.996-6.781l22.299-36.525c2.396-3.924,8.118-7.135,12.716-7.135h24.644
	L122.308,115.256z M137.873,114.597l4.304-47.61h44.19l4.103,45.383L137.873,114.597z M202.283,206.14
	c-9.653,0-17.479-7.827-17.479-17.48c0-9.654,7.826-17.479,17.479-17.479c9.652,0,17.479,7.825,17.479,17.479
	C219.762,198.313,211.936,206.14,202.283,206.14z M242.207,110.18l-36.29,1.537l-4.044-44.729h24.436
	c4.598,0,9.668,3.527,11.267,7.838l10.077,27.163C249.251,106.299,246.801,109.985,242.207,110.18z"/>
</svg>